:version 1.10
:name ASF
:units
  mass 1
  length 1
  angle deg
:documentation
  ASF file generated by Kaydara
:root
  axis xyz
  order  tx ty tz rx ry rz
  position 0 0 0
  orientation 0 0 0
:bonedata
  begin
    id 1
    name RightUpLegDummy
    direction -0.718183 -0.695806 0.00816078
    length 4.904
    axis 0 0 0 xyz
  end
  begin
    id 2
    name RightUpLeg
    direction 3.53373e-006 -0.995788 0.0916898
    length 17.4976
    axis -3.49089 -0.000906625 0.000286804 xyz
    dof rx ry rz
  end
  begin
    id 3
    name RightLeg
    direction 0.00371092 -0.995096 -0.0988419
    length 16.5821
    axis 3.68512 0.0193738 -0.131023 xyz
    dof rx ry rz
  end
  begin
    id 4
    name RightFoot
    direction 0.00079151 -0.46099 0.887405
    length 3.77069
    axis 4.81691e-005 -0.120479 -0.188788 xyz
    dof rx ry rz
  end
  begin
    id 5
    name RightToes
    direction 0 0 0
    length 0
    axis 0 0 0 xyz
    dof rx ry rz
  end
  begin
    id 6
    name SpineDummy
    direction 8.3039e-015 1 4.57515e-016
    length 4.6813
    axis 0 0 0 xyz
  end
  begin
    id 7
    name Spine
    direction -3.15643e-008 0.999988 0.00495137
    length 10.1015
    axis -0.001389 0.000121418 2.40972e-006 xyz
    dof rx ry rz
  end
  begin
    id 8
    name Spine1
    direction 0 0 0
    length 0
    axis -0.001389 0.000121451 1.30017e-006 xyz
    dof rx ry rz
  end
  begin
    id 9
    name HEadDummy
    direction -1.99912e-008 0.999999 0.00127422
    length 3.43865
    axis -0.001389 0.000121451 1.30017e-006 xyz
  end
  begin
    id 10
    name HEad
    direction 0 0 0
    length 0
    axis 0 0 0 xyz
    dof rx ry rz
  end
  begin
    id 11
    name LeftShoulder1Dummy
    direction 0.998891 -0.0402509 -0.0244456
    length 3.5433
    axis -0.001389 0.000121451 1.30017e-006 xyz
  end
  begin
    id 12
    name LeftShoulder1
    direction 0.99951 -0.000327763 0.0313091
    length 4.05031
    axis -0.001389 0.000121451 1.30017e-006 xyz
    dof rx ry rz
  end
  begin
    id 13
    name LeftArm
    direction 0.998561 -0.00100056 -0.0536182
    length 10.3537
    axis -23.1894 0.134784 0.967509 xyz
    dof rx ry rz
  end
  begin
    id 14
    name LeftForeArm
    direction 0.998903 0.00866432 0.046012
    length 8.70632
    axis -9.91835 -0.06569 -0.177794 xyz
    dof rx ry rz
  end
  begin
    id 15
    name LeftHand
    direction 0 0 0
    length 0
    axis 0 0 0 xyz
    dof rx ry rz
  end
  begin
    id 16
    name RightShoulderDummy
    direction -0.998891 -0.0402509 -0.0244414
    length 3.5433
    axis -0.001389 0.000121451 1.30017e-006 xyz
  end
  begin
    id 17
    name RightShoulder
    direction -0.99951 -0.000327807 0.0313133
    length 4.05031
    axis 0.215806 0.000203643 -0.0068026 xyz
    dof rx ry rz
  end
  begin
    id 18
    name RightArm
    direction -0.998573 -0.000999564 -0.053403
    length 10.3947
    axis -23.2009 -0.134239 -0.964101 xyz
    dof rx ry rz
  end
  begin
    id 19
    name RightForeArm
    direction -0.998898 0.00868028 0.0461306
    length 8.68355
    axis -9.92322 0.0658061 0.178868 xyz
    dof rx ry rz
  end
  begin
    id 20
    name RightHand
    direction 0 0 0
    length 0
    axis 0 0 0 xyz
    dof rx ry rz
  end
  begin
    id 21
    name LeftUpLegDummy
    direction 0.718183 -0.695806 0.00816078
    length 4.904
    axis 0 0 0 xyz
  end
  begin
    id 22
    name LeftUpLeg
    direction -6.81752e-006 -0.995793 0.0916337
    length 17.4976
    axis -3.48766 0.00143442 -0.000524262 xyz
    dof rx ry rz
  end
  begin
    id 23
    name LeftLeg
    direction -0.00601358 -0.995091 -0.0987824
    length 16.5821
    axis 3.68178 -0.00654042 -0.000285133 xyz
    dof rx ry rz
  end
  begin
    id 24
    name LeftFoot
    direction -0.00417578 -0.460984 0.887399
    length 3.77069
    axis 1.87233e-006 4.66016e-005 -8.6538e-006 xyz
    dof rx ry rz
  end
  begin
    id 25
    name LeftToes
    direction 0 0 0
    length 0
    axis 0 0 0 xyz
    dof rx ry rz
  end
:hierarchy
  begin
    root RightUpLegDummy SpineDummy LeftUpLegDummy
    RightUpLegDummy RightUpLeg
    RightUpLeg RightLeg
    RightLeg RightFoot
    RightFoot RightToes
    SpineDummy Spine
    Spine Spine1
    Spine1 HEadDummy LeftShoulder1Dummy RightShoulderDummy
    HEadDummy HEad
    LeftShoulder1Dummy LeftShoulder1
    LeftShoulder1 LeftArm
    LeftArm LeftForeArm
    LeftForeArm LeftHand
    RightShoulderDummy RightShoulder
    RightShoulder RightArm
    RightArm RightForeArm
    RightForeArm RightHand
    LeftUpLegDummy LeftUpLeg
    LeftUpLeg LeftLeg
    LeftLeg LeftFoot
    LeftFoot LeftToes
  end

:SAMPLES-PER-SECOND 30
:FULLY-SPECIFIED
:DEGREES
144
root  -54.523 39.5478 -1.19261 -118.324 -85.443 109.479
RightUpLeg  -4.96106 -6.26107 -12.4943
RightLeg  65.3438 -3.6235 -9.16747
RightFoot  2.65531 -1.00067 8.26165
RightToes  0.000481921 0.542163 -0.142578
Spine  4.18669 2.55985 2.2209
Spine1  8.36412 5.42686 -9.61713
HEad  -16.7332 -11.8331 1.98515
LeftShoulder1  9.4434 -13.1061 -49.6383
LeftArm  -7.78369 36.424 -24.2274
LeftForeArm  27.0104 -5.53947 -4.86012
LeftHand  -0.25398 0.0180481 5.50724
RightShoulder  5.80106 9.31824 39.1499
RightArm  6.14184 -4.91371 36.9391
RightForeArm  -15.8006 19.7793 6.3359
RightHand  -1.3487 4.92592 -15.4525
LeftUpLeg  -13.6746 14.5798 -5.44686
LeftLeg  16.7848 -0.219276 -0.170833
LeftFoot  5.29876 -0.609922 3.94849
LeftToes  1.06246e-005 4.65868e-005 -8.65514e-006
145
root  -55.2047 39.8949 -1.02208 -118.204 -86.366 109.121
RightUpLeg  -9.88561 -7.60026 -11.3091
RightLeg  68.9635 -3.59226 -10.9868
RightFoot  1.13842 -0.856585 7.89794
RightToes  0.000481921 0.542163 -0.142578
Spine  4.89116 1.82821 2.34601
Spine1  8.88543 4.38291 -8.38132
HEad  -17.6184 -13.0352 2.897
LeftShoulder1  9.78665 -13.4318 -50.4484
LeftArm  -9.9131 26.4868 -24.2888
LeftForeArm  27.3875 -7.72433 -4.75157
LeftHand  -0.25398 0.0180481 5.50724
RightShoulder  6.02633 9.68538 39.5768
RightArm  -0.157863 -6.01601 37.3809
RightForeArm  -5.64761 13.2077 8.18822
RightHand  -1.4241 5.21457 -15.871
LeftUpLeg  -11.1938 13.3693 -4.08389
LeftLeg  15.0908 0.583629 -0.775919
LeftFoot  4.82438 -0.583158 3.89807
LeftToes  1.06246e-005 4.65868e-005 -8.65514e-006
146
root  -55.8494 40.1793 -0.920694 -107.352 -87.3237 98.1965
RightUpLeg  -13.8668 -9.12153 -10.2637
RightLeg  69.2388 -3.53035 -11.0225
RightFoot  0.0479033 -0.760157 7.61339
RightToes  0.000481921 0.542163 -0.142578
Spine  5.3323 1.02324 1.46624
Spine1  9.30337 2.96967 -6.36011
HEad  -17.9708 -13.9043 3.98181
LeftShoulder1  9.77714 -13.5114 -50.1637
LeftArm  -12.5092 16.9012 -24.6214
LeftForeArm  27.188 -11.2408 -4.32283
LeftHand  -0.25398 0.0180481 5.50724
RightShoulder  6.16335 9.91078 39.8177
RightArm  -5.14738 -7.98926 37.7542
RightForeArm  1.55401 8.82764 8.36188
RightHand  -1.37205 4.6569 -16.1119
LeftUpLeg  -9.03 11.4311 -2.90802
LeftLeg  13.4891 1.71072 -1.41181
LeftFoot  4.09835 -0.557953 3.93143
LeftToes  1.06246e-005 4.65868e-005 -8.65514e-006
147
root  -56.4527 40.4066 -0.849599 -89.9091 -87.9672 80.8082
RightUpLeg  -16.8199 -10.2234 -9.39619
RightLeg  66.2617 -4.07288 -10.7196
RightFoot  -0.569163 -0.653952 6.88534
RightToes  0.000481921 0.542163 -0.142578
Spine  5.95595 0.311333 -0.0367107
Spine1  9.01297 1.43931 -3.81928
HEad  -17.7621 -14.3278 4.65891
LeftShoulder1  9.57798 -13.4192 -49.4133
LeftArm  -14.0937 8.01804 -24.5502
LeftForeArm  24.8136 -15.7957 -3.80257
LeftHand  -0.25398 0.0180481 5.50724
RightShoulder  6.20247 10.0076 39.7797
RightArm  -6.95756 -10.7373 37.9921
RightForeArm  3.67946 7.07688 7.89228
RightHand  -1.27444 3.89051 -16.1695
LeftUpLeg  -7.24853 9.45911 -1.98812
LeftLeg  11.979 2.84782 -1.98549
LeftFoot  3.92983 -0.583208 4.17037
LeftToes  1.06246e-005 4.65868e-005 -8.65514e-006
148
root  -57.0274 40.5954 -0.794708 -71.0179 -88.3427 61.8463
RightUpLeg  -18.0175 -10.7977 -8.74453
RightLeg  59.8635 -5.31957 -10.2989
RightFoot  -1.54692 -0.581446 6.6607
RightToes  0.000481921 0.542163 -0.142578
Spine  6.73367 -0.234817 -1.59095
Spine1  8.63609 0.0494376 -1.19706
HEad  -17.4801 -14.5667 4.89657
LeftShoulder1  9.35241 -13.2596 -48.7066
LeftArm  -15.8399 -0.253941 -23.5714
LeftForeArm  22.6057 -20.6782 -3.62663
LeftHand  -0.25398 0.0180481 5.50724
RightShoulder  6.13831 9.97947 39.418
RightArm  -7.40477 -13.781 37.9003
RightForeArm  3.52553 7.33596 7.72723
RightHand  -1.25498 3.74927 -16.1651
LeftUpLeg  -5.64652 7.9365 -1.17786
LeftLeg  10.8587 3.71784 -2.47438
LeftFoot  3.77391 -0.591793 4.28555
LeftToes  1.06246e-005 4.65868e-005 -8.65514e-006
149
root  -57.6177 40.7319 -0.77596 -51.9581 -88.3886 42.6755
RightUpLeg  -17.4013 -10.9426 -8.38026
RightLeg  50.5486 -6.60781 -8.90296
RightFoot  -2.72285 -0.534288 6.83095
RightToes  0.000481921 0.542163 -0.142578
Spine  7.21363 -0.70054 -3.09595
Spine1  8.65769 -1.13651 0.943574
HEad  -17.5113 -14.6599 5.17065
LeftShoulder1  9.05935 -13.1262 -47.5454
LeftArm  -19.5198 -7.49825 -22.1779
LeftForeArm  24.3591 -25.8945 -4.21883
LeftHand  -0.25398 0.0180481 5.50724
RightShoulder  6.06039 9.87269 39.2098
RightArm  -6.7942 -16.6237 37.3441
RightForeArm  2.93137 8.69863 7.81593
RightHand  -1.26123 3.98154 -15.8609
LeftUpLeg  -4.3027 6.81429 -0.620134
LeftLeg  10.403 4.33629 -2.72042
LeftFoot  2.91387 -0.526562 4.06596
LeftToes  1.06246e-005 4.65868e-005 -8.65514e-006
150
root  -58.2486 40.7931 -0.814775 -38.9455 -88.0401 29.751
RightUpLeg  -15.634 -10.7789 -8.23396
RightLeg  39.7114 -6.81443 -6.33125
RightFoot  -3.8619 -0.477478 6.90206
RightToes  0.000481921 0.542163 -0.142578
Spine  7.17564 -1.15964 -4.9367
Spine1  8.8543 -2.26468 2.83377
HEad  -17.6339 -14.6851 5.44112
LeftShoulder1  8.69724 -13.0537 -45.8031
LeftArm  -23.974 -13.282 -20.6757
LeftForeArm  29.1913 -31.7071 -5.32079
LeftHand  -0.25398 0.0180481 5.50724
RightShoulder  6.00526 9.75346 39.2016
RightArm  -5.30058 -18.9588 36.5337
RightForeArm  2.5438 10.0478 7.91006
RightHand  -1.20565 3.94692 -15.2357
LeftUpLeg  -3.58608 6.14821 -0.501009
LeftLeg  10.8504 4.40442 -2.5571
LeftFoot  1.63237 -0.438475 3.7692
LeftToes  1.06246e-005 4.65868e-005 -8.65514e-006
151
root  -58.9095 40.7667 -0.90966 -34.9706 -87.3651 25.9282
RightUpLeg  -13.1093 -10.9533 -8.32548
RightLeg  29.0218 -5.13597 -3.34441
RightFoot  -4.55105 -0.474788 7.43806
RightToes  0.000481921 0.542163 -0.142578
Spine  6.85646 -1.57637 -7.23158
Spine1  8.98876 -3.37503 4.82693
HEad  -17.5414 -14.7158 5.27208
LeftShoulder1  8.3624 -12.9564 -44.2385
LeftArm  -27.2307 -18.0529 -18.5743
LeftForeArm  32.9699 -36.946 -6.42536
LeftHand  -0.25398 0.0180481 5.50724
RightShoulder  5.91728 9.66254 38.8618
RightArm  -3.95915 -20.9188 36.0417
RightForeArm  2.2089 10.8952 7.93847
RightHand  -1.14149 3.6908 -14.838
LeftUpLeg  -3.51181 6.20637 -0.797055
LeftLeg  12.4385 3.52025 -2.08256
LeftFoot  0.168169 -0.364092 3.6028
LeftToes  1.06246e-005 4.65868e-005 -8.65514e-006
152
root  -59.5831 40.7173 -1.03378 -37.0016 -86.5185 27.944
RightUpLeg  -10.1112 -12.2926 -8.61702
RightLeg  20.0439 -2.06983 -0.998478
RightFoot  -3.24139 -0.559976 7.61334
RightToes  0.000481921 0.542163 -0.142578
Spine  6.37274 -1.81534 -9.22899
Spine1  9.18169 -4.13857 6.48132
HEad  -17.1301 -14.969 4.87922
LeftShoulder1  8.0903 -12.724 -43.3675
LeftArm  -28.6698 -22.757 -15.7127
LeftForeArm  33.9442 -40.113 -7.25821
LeftHand  -0.25398 0.0180481 5.50724
RightShoulder  5.78454 9.59424 38.1151
RightArm  -3.52519 -22.9913 36.2259
RightForeArm  1.31527 11.5727 7.85361
RightHand  -1.13854 3.56903 -14.9886
LeftUpLeg  -3.24498 6.75516 -1.33747
LeftLeg  14.0698 2.14254 -1.60508
LeftFoot  -1.39648 -0.284257 3.36001
LeftToes  1.06246e-005 4.65868e-005 -8.65514e-006
153
root  -60.2496 40.7481 -1.16375 -42.0458 -85.8713 33.0454
RightUpLeg  -7.54172 -13.3874 -8.98043
RightLeg  14.1402 -0.310345 0.377103
RightFoot  0.304784 -0.541922 5.42917
RightToes  0.000481921 0.542163 -0.142578
Spine  5.42417 -1.75872 -10.0375
Spine1  9.57692 -4.16808 7.1423
HEad  -16.4732 -15.6311 4.88237
LeftShoulder1  7.84487 -12.4016 -42.8749
LeftArm  -28.7501 -27.4323 -12.9136
LeftForeArm  34.1322 -42.0485 -7.84042
LeftHand  -0.25398 0.0180481 5.50724
RightShoulder  5.70439 9.54038 37.6993
RightArm  -4.23872 -25.1364 36.6572
RightForeArm  0.587509 12.0404 7.64747
RightHand  -1.15678 3.61793 -15.1435
LeftUpLeg  -2.23144 7.00823 -1.88367
LeftLeg  14.1485 1.45126 -1.21467
LeftFoot  -2.55691 -0.200611 2.81386
LeftToes  1.06246e-005 4.65868e-005 -8.65514e-006
154
root  -60.889 40.8569 -1.29337 -48.2879 -85.8748 39.7438
RightUpLeg  -6.26185 -11.8838 -9.15371
RightLeg  11.6231 -1.75968 1.21485
RightFoot  3.438 -0.215482 1.79789
RightToes  0.000481921 0.542163 -0.142578
Spine  3.96014 -1.47446 -9.48072
Spine1  10.0579 -3.54951 6.77351
HEad  -15.9304 -16.415 5.12567
LeftShoulder1  7.65003 -12.1668 -42.4075
LeftArm  -28.6499 -30.7244 -10.9172
LeftForeArm  35.3492 -44.8223 -8.67966
LeftHand  -0.25398 0.0180481 5.50724
RightShoulder  5.73768 9.49802 38.0829
RightArm  -6.07187 -26.4077 36.5543
RightForeArm  1.71183 11.6288 7.38725
RightHand  -1.1358 3.762 -14.6571
LeftUpLeg  -1.08402 6.63262 -2.12756
LeftLeg  13.0536 1.94718 -0.792714
LeftFoot  -3.11561 -0.136692 2.16456
LeftToes  1.06246e-005 4.65868e-005 -8.65514e-006
155
root  -61.4786 40.9712 -1.39341 -53.5266 -86.7991 45.5872
RightUpLeg  -5.74281 -10.6539 -8.52885
RightLeg  10.8261 -2.5632 1.61845
RightFoot  4.18857 0.0394526 -0.0934794
RightToes  0.000481921 0.542163 -0.142578
Spine  2.6977 -1.18197 -7.61376
Spine1  10.3415 -2.79434 5.82306
HEad  -15.8411 -16.699 4.83215
LeftShoulder1  7.54038 -12.1018 -41.9432
LeftArm  -28.9616 -31.1738 -9.81802
LeftForeArm  36.7559 -48.7506 -10.0431
LeftHand  -0.25398 0.0180481 5.50724
RightShoulder  5.79025 9.43724 38.672
RightArm  -8.63106 -26.2172 35.7796
RightForeArm  4.12026 10.5506 6.95141
RightHand  -1.12744 4.16885 -13.97
LeftUpLeg  -0.413048 6.12601 -1.65509
LeftLeg  12.4419 3.01791 -0.295585
LeftFoot  -3.64807 -0.0949578 1.7402
LeftToes  1.06246e-005 4.65868e-005 -8.65514e-006
156
root  -62.0156 41.066 -1.45112 -60.2132 -88.2741 52.6187
RightUpLeg  -4.71828 -10.1001 -7.722
RightLeg  9.61275 -2.25569 2.39147
RightFoot  3.78391 -0.0157873 0.314103
RightToes  0.000481921 0.542163 -0.142578
Spine  2.28885 -1.04278 -5.16551
Spine1  10.0484 -2.31896 4.8443
HEad  -15.873 -16.206 3.89757
LeftShoulder1  7.41552 -12.0967 -41.2093
LeftArm  -28.926 -28.5907 -9.94338
LeftForeArm  38.3254 -52.7496 -11.6636
LeftHand  -0.25398 0.0180481 5.50724
RightShoulder  5.7306 9.33057 38.5828
RightArm  -11.6863 -25.3573 34.8862
RightForeArm  5.14207 10.3077 6.18212
RightHand  -1.21896 4.92133 -14.018
LeftUpLeg  0.145639 6.02219 -0.552771
LeftLeg  12.5328 3.88076 0.149114
LeftFoot  -4.50239 -0.0628943 1.50641
LeftToes  1.06246e-005 4.65868e-005 -8.65514e-006
157
root  -62.5291 41.1358 -1.51268 -90.6135 -89.3268 83.2354
RightUpLeg  -3.42793 -9.86234 -7.26592
RightLeg  8.05308 -1.71394 3.41308
RightFoot  3.79599 -0.0804664 0.801888
RightToes  0.000481921 0.542163 -0.142578
Spine  2.30325 -1.04356 -3.68173
Spine1  9.22557 -2.24621 4.67883
HEad  -15.4305 -15.1166 2.95085
LeftShoulder1  7.15539 -11.9512 -40.0448
LeftArm  -27.636 -24.324 -11.2078
LeftForeArm  41.3794 -55.7446 -12.9496
LeftHand  -0.25398 0.0180481 5.50724
RightShoulder  5.48451 9.09366 37.5082
RightArm  -15.3238 -24.6255 34.16
RightForeArm  4.04696 11.8125 5.27679
RightHand  -1.38433 5.78304 -14.6991
LeftUpLeg  0.910054 6.23667 0.482015
LeftLeg  12.4767 4.37858 0.317595
LeftFoot  -5.3899 -0.0333932 1.26688
LeftToes  1.06246e-005 4.65868e-005 -8.65514e-006
158
root  -63.0302 41.1962 -1.61236 -152.988 -89.2912 146.048
RightUpLeg  -2.68942 -9.58744 -6.95485
RightLeg  7.04417 -1.52584 3.90429
RightFoot  3.99046 -0.0117661 0.288451
RightToes  0.000481921 0.542163 -0.142578
Spine  1.9087 -1.09133 -3.64616
Spine1  8.47147 -2.47445 5.66387
HEad  -14.4997 -13.7199 2.26079
LeftShoulder1  6.84109 -11.6449 -38.964
LeftArm  -25.1161 -19.7253 -12.2772
LeftForeArm  45.4627 -57.4992 -13.6078
LeftHand  -0.25398 0.0180481 5.50724
RightShoulder  5.0533 8.62458 35.6867
RightArm  -19.0414 -23.4847 33.1559
RightForeArm  2.96804 14.1251 4.52697
RightHand  -1.50096 6.37955 -15.131
LeftUpLeg  1.70161 6.43962 1.09212
LeftLeg  11.8031 4.7288 0.193826
LeftFoot  -5.87975 -0.0108675 0.981935
LeftToes  1.06246e-005 4.65868e-005 -8.65514e-006
